<svg xmlns="http://www.w3.org/2000/svg" viewBox="0 0 50 47.8"><defs><style>.cls-1{fill:#424e5c;}.cls-2{fill:#afc5d8;}.cls-3{fill:#bae0bd;}.cls-4{font-size:10px;fill:#f6f2a8;font-family:MyriadPro-Regular, Myriad Pro;}</style></defs><g id="Layer_1" data-name="Layer 1"><path class="cls-1" d="M.35.35h49.3V46.87H.35Z" transform="translate(0 0.58)"/><path class="cls-2" d="M49.31.69V46.53H.69V.69H49.31M50,0H0V47.22H50V0Z" transform="translate(0 0.58)"/><path class="cls-2" d="M0,0H50V8.33H0Z" transform="translate(0 0.58)"/><path class="cls-3" d="M20.87,35.52l7-18.75,1.31.48L22.18,36Z" transform="translate(0 0.58)"/><path class="cls-3" d="M16.6,33.61,8.33,26.39l8.27-7.22.9,1-7.08,6.18,7.08,6.18Zm16.87.07-.9-1,7-6.18-7-6.25.9-1,8.2,7.29Z" transform="translate(0 0.58)"/></g><g id="Layer_2" data-name="Layer 2"><text class="cls-4" transform="translate(9.92 8.37)">MVC JS</text></g></svg>